<svg width="122" height="31" viewBox="0 0 122 31" fill="none" xmlns="http://www.w3.org/2000/svg">
<path d="M21.0464 9.81318L10.8925 6.47998L10.8002 10.3687L17.7233 10.9242L21.0464 9.81318Z" fill="#839EFF"/>
<path d="M20.677 19.999L2.21539 30.1838L10.5231 30.5542L22.7078 21.8508L20.677 19.999Z" fill="#839EFF"/>
<path d="M24 8.33299L5.72296 0L7.19989 23.8879L10.6153 22.4065L10.8922 6.48122L21.0461 9.81441L20.6769 19.9992L22.7077 21.851L24 8.33299Z" fill="#416AFF"/>
<path d="M5.72311 0L0 2.59249L2.2154 30.1839L20.677 19.9992L21.0463 9.81441L17.7232 10.9255V19.2585L7.20004 23.8879L5.72311 0Z" fill="#263BFC"/>
<path d="M47.2291 25.5815V7.83728H43.2518V14.1383L43.9975 16.311H43.0032C42.3569 14.6935 41.1637 13.1485 38.0565 13.1485C34.4272 13.1485 32.6125 16.0213 32.6125 19.4736C32.6125 22.9259 34.4272 25.8229 38.0565 25.8229C41.1637 25.8229 42.3569 24.2778 43.0032 22.6603H43.9975L43.2518 24.8331V25.5815H47.2291ZM43.2518 19.4736C43.2518 21.5256 42.0586 22.443 39.9208 22.443C37.783 22.443 36.5898 21.5256 36.5898 19.4736C36.5898 17.4215 37.783 16.5283 39.9208 16.5283C42.0586 16.5283 43.2518 17.4215 43.2518 19.4736Z" fill="white"/>
<path d="M49.4714 25.5815H53.4486V16.6249L59.8372 16.7697V13.3899L51.6091 13.1967C50.242 13.1726 49.4714 13.8969 49.4714 15.2246V25.5815Z" fill="white"/>
<path d="M66.2333 12.1828C67.6999 12.1828 68.6196 11.5068 68.6196 10.2514C68.6196 9.02022 67.6999 8.32011 66.2333 8.32011C64.7666 8.32011 63.8966 9.02022 63.8966 10.2514C63.8966 11.5068 64.7666 12.1828 66.2333 12.1828ZM61.0876 25.5815H72.0252V22.2016H68.4705V15.1764C68.4705 13.8244 67.6999 13.076 66.3078 13.1485L61.5848 13.3899V16.7697L64.6423 16.6249V22.2016H61.0876V25.5815Z" fill="white"/>
<path d="M81.3221 11.2171H83.957V7.83728H81.8193C77.6182 7.83728 75.6545 9.67205 75.6545 12.9553V13.3899H73.2681V16.7697H75.6545V22.2016H73.2681V25.5815H83.261V22.2016H79.6317V16.7697H83.261V13.3899H79.6317V13.076C79.6317 11.7241 80.1538 11.2171 81.3221 11.2171Z" fill="white"/>
<path d="M92.9986 11.2171H95.6335V7.83728H93.4957C89.2947 7.83728 87.3309 9.67205 87.3309 12.9553V13.3899H84.9446V16.7697H87.3309V22.2016H84.9446V25.5815H94.9375V22.2016H91.3082V16.7697H94.9375V13.3899H91.3082V13.076C91.3082 11.7241 91.8303 11.2171 92.9986 11.2171Z" fill="white"/>
<path d="M96.6211 25.5815H107.559V22.2016H104.078V9.69619C104.078 8.34425 103.308 7.62 101.916 7.66828L97.1182 7.83728V11.2171L100.101 11.0723V22.2016H96.6211V25.5815Z" fill="white"/>
<path d="M108.303 19.3287C108.303 22.781 110.516 25.8229 115.338 25.8229C119.688 25.8229 121.752 23.0466 122 21.2842H118.023C117.774 22.2016 116.73 22.6844 115.338 22.6844C113.076 22.6844 112.032 21.6946 112.032 20.2944H121.553V19.0873C121.553 15.3936 118.818 13.1485 114.916 13.1485C111.013 13.1485 108.303 15.4661 108.303 19.3287ZM112.032 18.1217C112.032 17.2043 112.703 16.2869 114.916 16.2869C117.128 16.2869 117.824 17.2043 117.824 18.1217H112.032Z" fill="white"/>
</svg>
